<?xml version="1.0" encoding="utf-8"?>
<!-- Generator: Adobe Illustrator 23.0.2, SVG Export Plug-In . SVG Version: 6.00 Build 0)  -->
<svg version="1.1" baseProfile="tiny" id="Layer_1" xmlns="http://www.w3.org/2000/svg" xmlns:xlink="http://www.w3.org/1999/xlink"
	 x="0px" y="0px" viewBox="0 0 1067 393" xml:space="preserve">
<rect x="0.05" fill="#D64045" width="328" height="393"/>
<g>
	<path fill="#FFFFFF" d="M61.43,101.49v22.2h-5.2v-22.2h-6v-4.48h17.2v4.48H61.43z"/>
	<path fill="#FFFFFF" d="M84.62,118.85c-0.52,1.28-2.48,5.4-8.52,5.4c-2.8,0-4.92-0.8-6.64-2.44c-1.92-1.8-2.72-4.04-2.72-6.76
		c0-3.44,1.4-5.56,2.64-6.8c2.04-2,4.44-2.44,6.52-2.44c3.52,0,5.56,1.4,6.76,2.84c1.84,2.2,2.08,4.92,2.08,6.8v0.4H71.79
		c0,1.04,0.28,2.16,0.84,2.92c0.52,0.72,1.6,1.64,3.48,1.64c1.84,0,3.24-0.88,4.04-2.28L84.62,118.85z M80.14,112.73
		c-0.4-2.36-2.32-3.48-4.12-3.48s-3.68,1.16-4.08,3.48H80.14z"/>
	<path fill="#FFFFFF" d="M88.51,106.37h4.88v2.6c0.76-1.48,1.8-2.2,2.16-2.4c0.76-0.48,1.72-0.76,2.88-0.76
		c0.84,0,1.52,0.2,2.08,0.4l-0.64,4.56c-0.64-0.44-1.28-0.64-2.28-0.64c-0.92,0-2.28,0.2-3.24,1.4c-0.92,1.16-0.96,2.64-0.96,3.84
		v8.32h-4.88V106.37z"/>
	<path fill="#FFFFFF" d="M102.91,106.37h4.88v1.96c1.84-2.32,4.12-2.52,5.16-2.52c3.64,0,5.04,2.28,5.48,3.16
		c0.84-1.36,2.56-3.16,5.56-3.16c2.68,0,4,1.24,4.68,2.12c1.12,1.48,1.2,2.96,1.2,4.88v10.88h-4.88v-9.44c0-2.04-0.44-2.96-0.8-3.4
		c-0.64-0.8-1.52-0.88-2-0.88c-1.32,0-2.16,0.6-2.68,1.52c-0.64,1.04-0.68,2.44-0.68,3.36v8.84h-4.88v-9.44
		c0-2.04-0.44-2.96-0.8-3.4c-0.64-0.8-1.52-0.88-2-0.88c-1.32,0-2.16,0.6-2.68,1.52c-0.64,1.04-0.68,2.44-0.68,3.36v8.84h-4.88
		V106.37z"/>
	<path fill="#FFFFFF" d="M148.7,94.53v29.16h-4.88V94.53H148.7z"/>
	<path fill="#FFFFFF" d="M155.78,96.13c1.6,0,2.92,1.32,2.92,2.92s-1.32,2.92-2.92,2.92s-2.92-1.32-2.92-2.92
		S154.18,96.13,155.78,96.13z M158.22,106.37v17.32h-4.88v-17.32H158.22z"/>
	<path fill="#FFFFFF" d="M167.82,110.53v13.16h-4.88v-13.16h-1.84v-4.16h1.84v-4.76c0-1.6,0.12-4.32,2.28-6.12
		c1.04-0.88,2.48-1.44,4.28-1.44c1.08,0,1.96,0.2,2.8,0.6v4.44c-0.68-0.52-1.36-0.72-2.2-0.72c-0.64,0-1.28,0.16-1.76,0.88
		c-0.4,0.64-0.52,1.56-0.52,3v4.12h4.48v4.16H167.82z"/>
	<path fill="#FFFFFF" d="M191.54,118.85c-0.52,1.28-2.48,5.4-8.52,5.4c-2.8,0-4.92-0.8-6.64-2.44c-1.92-1.8-2.72-4.04-2.72-6.76
		c0-3.44,1.4-5.56,2.64-6.8c2.04-2,4.44-2.44,6.52-2.44c3.52,0,5.56,1.4,6.76,2.84c1.84,2.2,2.08,4.92,2.08,6.8v0.4H178.7
		c0,1.04,0.28,2.16,0.84,2.92c0.52,0.72,1.6,1.64,3.48,1.64c1.84,0,3.24-0.88,4.04-2.28L191.54,118.85z M187.06,112.73
		c-0.4-2.36-2.32-3.48-4.12-3.48s-3.68,1.16-4.08,3.48H187.06z"/>
</g>
<rect x="369.59" y="0" fill="#5AA9E6" width="328" height="393"/>
<g>
	<path fill="#FFFFFF" d="M430.01,123.69h-3.92l-9.28-26.68h5.52l5.96,18.16l6.52-18.4h2.88l6.16,18.4l6.4-18.16h5.52l-9.88,26.68
		h-3.92l-5.84-16.92L430.01,123.69z"/>
	<path fill="#FFFFFF" d="M456.77,94.53h4.88v14.08c0.92-1.28,2.56-2.8,5.36-2.8c1.52,0,3.76,0.44,5.12,2.12
		c1.2,1.48,1.36,3.2,1.36,4.88v10.88h-4.88v-9.44c0-0.96-0.04-2.48-0.92-3.4c-0.76-0.8-1.8-0.88-2.28-0.88c-1.28,0-2.28,0.44-3,1.52
		c-0.72,1.12-0.76,2.36-0.76,3.36v8.84h-4.88V94.53z"/>
	<path fill="#FFFFFF" d="M493.33,108.25c1.72,1.56,2.92,3.96,2.92,6.8c0,2.8-1.2,5.2-2.92,6.76c-1.48,1.36-3.72,2.44-7,2.44
		c-3.28,0-5.52-1.08-7-2.44c-1.72-1.56-2.92-3.96-2.92-6.76c0-2.84,1.2-5.24,2.92-6.8c1.48-1.36,3.72-2.44,7-2.44
		C489.61,105.81,491.85,106.89,493.33,108.25z M491.21,115.05c0-2.72-2.08-4.92-4.88-4.92c-2.8,0-4.88,2.2-4.88,4.92
		c0,2.64,2.04,4.88,4.88,4.88C489.17,119.93,491.21,117.69,491.21,115.05z"/>
	<path fill="#FFFFFF" d="M504.89,94.53v29.16h-4.88V94.53H504.89z"/>
	<path fill="#FFFFFF" d="M526.53,118.85c-0.52,1.28-2.48,5.4-8.52,5.4c-2.8,0-4.92-0.8-6.64-2.44c-1.92-1.8-2.72-4.04-2.72-6.76
		c0-3.44,1.4-5.56,2.64-6.8c2.04-2,4.44-2.44,6.52-2.44c3.52,0,5.56,1.4,6.76,2.84c1.84,2.2,2.08,4.92,2.08,6.8v0.4h-12.96
		c0,1.04,0.28,2.16,0.84,2.92c0.52,0.72,1.6,1.64,3.48,1.64c1.84,0,3.24-0.88,4.04-2.28L526.53,118.85z M522.05,112.73
		c-0.4-2.36-2.32-3.48-4.12-3.48s-3.68,1.16-4.08,3.48H522.05z"/>
	<path fill="#FFFFFF" d="M544.61,94.53v29.16h-4.88V94.53H544.61z"/>
	<path fill="#FFFFFF" d="M551.69,96.13c1.6,0,2.92,1.32,2.92,2.92s-1.32,2.92-2.92,2.92s-2.92-1.32-2.92-2.92
		S550.09,96.13,551.69,96.13z M554.13,106.37v17.32h-4.88v-17.32H554.13z"/>
	<path fill="#FFFFFF" d="M563.73,110.53v13.16h-4.88v-13.16h-1.84v-4.16h1.84v-4.76c0-1.6,0.12-4.32,2.28-6.12
		c1.04-0.88,2.48-1.44,4.28-1.44c1.08,0,1.96,0.2,2.8,0.6v4.44c-0.68-0.52-1.36-0.72-2.2-0.72c-0.64,0-1.28,0.16-1.76,0.88
		c-0.4,0.64-0.52,1.56-0.52,3v4.12h4.48v4.16H563.73z"/>
	<path fill="#FFFFFF" d="M587.45,118.85c-0.52,1.28-2.48,5.4-8.52,5.4c-2.8,0-4.92-0.8-6.64-2.44c-1.92-1.8-2.72-4.04-2.72-6.76
		c0-3.44,1.4-5.56,2.64-6.8c2.04-2,4.44-2.44,6.52-2.44c3.52,0,5.56,1.4,6.76,2.84c1.84,2.2,2.08,4.92,2.08,6.8v0.4h-12.96
		c0,1.04,0.28,2.16,0.84,2.92c0.52,0.72,1.6,1.64,3.48,1.64c1.84,0,3.24-0.88,4.04-2.28L587.45,118.85z M582.97,112.73
		c-0.4-2.36-2.32-3.48-4.12-3.48s-3.68,1.16-4.08,3.48H582.97z"/>
</g>
<rect x="739.13" y="0" fill="#FDCA40" width="328" height="393"/>
<g>
	<path fill="#FFFFFF" d="M795.15,97.01v16.76c0,2.04,0.68,3.28,1.28,3.96c0.76,0.92,2.16,1.84,4.24,1.84c2.08,0,3.48-0.92,4.24-1.84
		c0.6-0.68,1.28-1.92,1.28-3.96V97.01h5.2v16.32c0,2.52-0.4,5.08-2,7.12c-1.92,2.52-5.28,3.84-8.72,3.84s-6.8-1.32-8.72-3.84
		c-1.6-2.04-2-4.6-2-7.12V97.01H795.15z"/>
	<path fill="#FFFFFF" d="M816.75,106.37h4.88v2.24c0.92-1.28,2.56-2.8,5.36-2.8c1.52,0,3.76,0.44,5.12,2.12
		c1.2,1.48,1.36,3.2,1.36,4.88v10.88h-4.88v-9.44c0-0.96-0.04-2.48-0.92-3.4c-0.76-0.8-1.8-0.88-2.28-0.88c-1.28,0-2.28,0.44-3,1.52
		c-0.72,1.12-0.76,2.36-0.76,3.36v8.84h-4.88V106.37z"/>
	<path fill="#FFFFFF" d="M840.55,96.13c1.6,0,2.92,1.32,2.92,2.92s-1.32,2.92-2.92,2.92s-2.92-1.32-2.92-2.92
		S838.95,96.13,840.55,96.13z M842.99,106.37v17.32h-4.88v-17.32H842.99z"/>
	<path fill="#FFFFFF" d="M850.83,106.37l4.56,9.76l4.56-9.76h5.44l-8.72,17.32h-2.56l-8.72-17.32H850.83z"/>
	<path fill="#FFFFFF" d="M884.38,118.85c-0.52,1.28-2.48,5.4-8.52,5.4c-2.8,0-4.92-0.8-6.64-2.44c-1.92-1.8-2.72-4.04-2.72-6.76
		c0-3.44,1.4-5.56,2.64-6.8c2.04-2,4.44-2.44,6.52-2.44c3.52,0,5.56,1.4,6.76,2.84c1.84,2.2,2.08,4.92,2.08,6.8v0.4h-12.96
		c0,1.04,0.28,2.16,0.84,2.92c0.52,0.72,1.6,1.64,3.48,1.64c1.84,0,3.24-0.88,4.04-2.28L884.38,118.85z M879.9,112.73
		c-0.4-2.36-2.32-3.48-4.12-3.48s-3.68,1.16-4.08,3.48H879.9z"/>
	<path fill="#FFFFFF" d="M888.27,106.37h4.88v2.6c0.76-1.48,1.8-2.2,2.16-2.4c0.76-0.48,1.72-0.76,2.88-0.76
		c0.84,0,1.52,0.2,2.08,0.4l-0.64,4.56c-0.64-0.44-1.28-0.64-2.28-0.64c-0.92,0-2.28,0.2-3.24,1.4c-0.92,1.16-0.96,2.64-0.96,3.84
		v8.32h-4.88V106.37z"/>
	<path fill="#FFFFFF" d="M911.66,110.49c-1.16-1.08-2.32-1.16-2.84-1.16c-1.16,0-1.88,0.56-1.88,1.4c0,0.44,0.2,1.12,1.56,1.56
		l1.16,0.36c1.36,0.44,3.4,1.12,4.4,2.48c0.52,0.72,0.88,1.76,0.88,2.88c0,1.56-0.52,3.12-1.92,4.4c-1.4,1.28-3.08,1.84-5.2,1.84
		c-3.6,0-5.64-1.72-6.72-2.88l2.56-2.96c0.96,1.12,2.4,2,3.84,2c1.36,0,2.4-0.68,2.4-1.88c0-1.08-0.88-1.52-1.52-1.76l-1.12-0.4
		c-1.24-0.44-2.68-1-3.72-2.08c-0.8-0.84-1.32-1.92-1.32-3.32c0-1.68,0.8-3.08,1.8-3.92c1.36-1.08,3.12-1.24,4.52-1.24
		c1.28,0,3.32,0.16,5.52,1.84L911.66,110.49z"/>
	<path fill="#FFFFFF" d="M931.66,106.37h4.88v17.32h-4.88v-2.24c-1.76,2.52-4.08,2.8-5.32,2.8c-5.32,0-8.84-4.16-8.84-9.24
		c0-5.12,3.48-9.2,8.6-9.2c1.32,0,3.92,0.24,5.56,2.8V106.37z M922.54,115.01c0,2.76,2,4.92,4.8,4.92c2.8,0,4.8-2.16,4.8-4.92
		c0-2.76-2-4.88-4.8-4.88C924.54,110.13,922.54,112.25,922.54,115.01z"/>
	<path fill="#FFFFFF" d="M946.06,94.53v29.16h-4.88V94.53H946.06z"/>
	<path fill="#FFFFFF" d="M964.9,94.53v29.16h-4.88V94.53H964.9z"/>
	<path fill="#FFFFFF" d="M971.98,96.13c1.6,0,2.92,1.32,2.92,2.92s-1.32,2.92-2.92,2.92s-2.92-1.32-2.92-2.92
		S970.38,96.13,971.98,96.13z M974.42,106.37v17.32h-4.88v-17.32H974.42z"/>
	<path fill="#FFFFFF" d="M984.02,110.53v13.16h-4.88v-13.16h-1.84v-4.16h1.84v-4.76c0-1.6,0.12-4.32,2.28-6.12
		c1.04-0.88,2.48-1.44,4.28-1.44c1.08,0,1.96,0.2,2.8,0.6v4.44c-0.68-0.52-1.36-0.72-2.2-0.72c-0.64,0-1.28,0.16-1.76,0.88
		c-0.4,0.64-0.52,1.56-0.52,3v4.12h4.48v4.16H984.02z"/>
	<path fill="#FFFFFF" d="M1007.74,118.85c-0.52,1.28-2.48,5.4-8.52,5.4c-2.8,0-4.92-0.8-6.64-2.44c-1.92-1.8-2.72-4.04-2.72-6.76
		c0-3.44,1.4-5.56,2.64-6.8c2.04-2,4.44-2.44,6.52-2.44c3.52,0,5.56,1.4,6.76,2.84c1.84,2.2,2.08,4.92,2.08,6.8v0.4H994.9
		c0,1.04,0.28,2.16,0.84,2.92c0.52,0.72,1.6,1.64,3.48,1.64c1.84,0,3.24-0.88,4.04-2.28L1007.74,118.85z M1003.26,112.73
		c-0.4-2.36-2.32-3.48-4.12-3.48c-1.8,0-3.68,1.16-4.08,3.48H1003.26z"/>
</g>
<g>
	<path fill="#FFFFFF" d="M51.33,214.58c0.14-0.17,0.28-0.36,0.42-0.53c0.28-0.36,0.59-0.59,0.98-0.25c0.2,0.17,2.24,2.13,4.73,2.13
		c2.27,0,3.75-1.43,3.75-3.08c0-1.93-1.68-3.08-4.9-4.42c-3.08-1.34-4.93-2.6-4.93-5.8c0-1.9,1.51-4.98,5.96-4.98
		c2.74,0,4.79,1.43,4.79,1.43c0.17,0.08,0.5,0.42,0.17,0.95c-0.11,0.17-0.22,0.36-0.34,0.53c-0.25,0.39-0.53,0.5-0.98,0.25
		c-0.2-0.11-1.96-1.29-3.67-1.29c-2.97,0-3.86,1.9-3.86,3.08c0,1.88,1.43,2.97,3.78,3.95c3.78,1.54,6.22,2.97,6.22,6.22
		c0,2.91-2.77,5.04-6.05,5.04c-3.3,0-5.54-1.93-5.91-2.27C51.27,215.33,50.99,215.11,51.33,214.58z"/>
	<path fill="#FFFFFF" d="M66.95,208h-1.43c-0.31,0-0.53-0.25-0.53-0.53v-0.62c0-0.31,0.22-0.53,0.53-0.53h1.43v-3.11
		c0-0.28,0.25-0.53,0.53-0.53l0.9-0.06c0.28,0,0.5,0.25,0.5,0.53v3.16h3.25c0.31,0,0.53,0.22,0.53,0.53v0.62
		c0,0.28-0.22,0.53-0.53,0.53h-3.25v6.55c0,1.12,0.28,1.34,0.92,1.34c0.7,0,1.68-0.42,2.04-0.62c0.42-0.22,0.53-0.06,0.67,0.17
		l0.42,0.7c0.2,0.34,0.11,0.5-0.2,0.7c-0.39,0.25-1.9,0.95-3.22,0.95c-2.24,0-2.58-1.34-2.58-3.08V208z"/>
	<path fill="#FFFFFF" d="M75.8,206.85c0-0.28,0.25-0.53,0.53-0.53h0.53c0.22,0,0.42,0.14,0.48,0.39l0.22,0.81
		c0,0,1.04-1.48,3.36-1.48c0.84,0,2.24,0.14,1.96,0.92l-0.34,0.95c-0.14,0.36-0.39,0.36-0.67,0.25c-0.25-0.11-0.67-0.22-1.09-0.22
		c-2.13,0-3.05,1.57-3.05,1.57v7.48c0,0.28-0.25,0.53-0.53,0.53h-0.87c-0.28,0-0.53-0.25-0.53-0.53V206.85z"/>
	<path fill="#FFFFFF" d="M88.82,210.41c1.2,0,2.38,0.36,2.38,0.36c0.03-2.07-0.22-3.02-1.82-3.02c-1.54,0-2.86,0.42-3.36,0.62
		c-0.28,0.11-0.45-0.03-0.53-0.28l-0.22-0.7c-0.11-0.34,0.06-0.5,0.31-0.62c0.17-0.08,1.79-0.73,3.89-0.73
		c2.86,0,3.56,1.46,3.56,4.73v6.22c0,0.28-0.25,0.53-0.53,0.53h-0.53c-0.31,0-0.39-0.17-0.48-0.42l-0.22-0.76
		c-0.59,0.59-1.74,1.46-3.47,1.46c-1.96,0-3.44-1.43-3.44-3.67C84.34,212,85.93,210.41,88.82,210.41z M88.09,216.12
		c1.4,0,2.6-0.87,3.08-1.57v-2.21c-0.34-0.2-1.12-0.45-2.35-0.45c-1.57,0-2.69,0.78-2.69,2.24
		C86.13,215.25,86.89,216.12,88.09,216.12z"/>
	<path fill="#FFFFFF" d="M96.52,199.82c0-0.76,0.59-1.34,1.32-1.34c0.76,0,1.34,0.59,1.34,1.34c0,0.73-0.59,1.32-1.34,1.32
		C97.11,201.14,96.52,200.55,96.52,199.82z M96.91,206.85c0-0.28,0.25-0.53,0.53-0.53h0.87c0.28,0,0.53,0.25,0.53,0.53v10.14
		c0,0.28-0.25,0.53-0.53,0.53h-0.87c-0.28,0-0.53-0.25-0.53-0.53V206.85z"/>
	<path fill="#FFFFFF" d="M103.57,213.77c0,0-0.9-1.15-0.9-2.8c0-2.6,1.82-4.93,4.73-4.93h4.73c0.31,0,0.53,0.22,0.53,0.53v0.48
		c0,0.2-0.11,0.45-0.31,0.48l-1.51,0.31c0,0,1.26,0.92,1.26,3.14c0,2.55-1.82,4.76-4.7,4.76c-1.79,0-2.66-0.7-2.66-0.7
		s-1.23,0.56-1.23,1.68c0,0.7,0.5,1.37,1.54,1.37h4.03c2.35,0,4.2,1.15,4.2,3.58c0,2.32-2.41,4.54-5.8,4.54
		c-3.75,0-5.38-2.02-5.38-3.86c0-1.68,1.34-2.44,1.62-2.6v-0.08c-0.73-0.2-2.04-0.92-2.04-2.66
		C101.7,214.86,103.57,213.77,103.57,213.77z M107.47,224.38c1.85,0,3.75-1.04,3.75-2.66c0-0.36-0.17-1.82-2.13-1.82
		c-1.04,0-2.07,0-3.11,0c0,0-1.88,0.5-1.88,2.16C104.11,223.4,105.56,224.38,107.47,224.38z M110.24,210.91
		c0-1.85-1.12-3.14-2.8-3.14c-1.71,0-2.94,1.29-2.94,3.14s1.23,3.14,2.94,3.14C109.12,214.04,110.24,212.76,110.24,210.91z"/>
	<path fill="#FFFFFF" d="M115.7,198.45c0-0.28,0.25-0.53,0.53-0.53h0.87c0.28,0,0.53,0.25,0.53,0.53v9.07c0,0,1.48-1.48,3.75-1.48
		c2.77,0,4.34,1.76,4.34,5.04v5.91c0,0.28-0.25,0.53-0.53,0.53h-0.9c-0.28,0-0.53-0.25-0.53-0.53v-5.91c0-2.13-0.95-3.16-2.52-3.16
		c-2.13,0-3.61,1.57-3.61,1.57v7.5c0,0.28-0.25,0.53-0.53,0.53h-0.87c-0.28,0-0.53-0.25-0.53-0.53V198.45z"/>
	<path fill="#FFFFFF" d="M130.29,208h-1.43c-0.31,0-0.53-0.25-0.53-0.53v-0.62c0-0.31,0.22-0.53,0.53-0.53h1.43v-3.11
		c0-0.28,0.25-0.53,0.53-0.53l0.9-0.06c0.28,0,0.5,0.25,0.5,0.53v3.16h3.25c0.31,0,0.53,0.22,0.53,0.53v0.62
		c0,0.28-0.22,0.53-0.53,0.53h-3.25v6.55c0,1.12,0.28,1.34,0.92,1.34c0.7,0,1.68-0.42,2.04-0.62c0.42-0.22,0.53-0.06,0.67,0.17
		l0.42,0.7c0.2,0.34,0.11,0.5-0.2,0.7c-0.39,0.25-1.9,0.95-3.22,0.95c-2.24,0-2.58-1.34-2.58-3.08V208z"/>
	<path fill="#FFFFFF" d="M146.08,208h-1.43c-0.31,0-0.53-0.25-0.53-0.53v-0.62c0-0.31,0.22-0.53,0.53-0.53h1.43v-3.11
		c0-0.28,0.25-0.53,0.53-0.53l0.9-0.06c0.28,0,0.5,0.25,0.5,0.53v3.16h3.25c0.31,0,0.53,0.22,0.53,0.53v0.62
		c0,0.28-0.22,0.53-0.53,0.53h-3.25v6.55c0,1.12,0.28,1.34,0.92,1.34c0.7,0,1.68-0.42,2.04-0.62c0.42-0.22,0.53-0.06,0.67,0.17
		l0.42,0.7c0.2,0.34,0.11,0.5-0.2,0.7c-0.39,0.25-1.9,0.95-3.22,0.95c-2.24,0-2.58-1.34-2.58-3.08V208z"/>
	<path fill="#FFFFFF" d="M159.6,206.04c2.94,0,5.07,2.18,5.07,5.12c0,0.2-0.03,0.56-0.06,0.76c-0.03,0.28-0.25,0.48-0.5,0.48h-8.06
		c0.11,1.88,1.76,3.64,3.75,3.64c1.18,0,2.13-0.45,2.77-0.84c0.39-0.22,0.56-0.36,0.78-0.06c0.17,0.22,0.31,0.42,0.48,0.64
		c0.2,0.25,0.31,0.42-0.11,0.73c-0.67,0.53-2.18,1.29-4.12,1.29c-3.39,0-5.49-2.66-5.49-5.88
		C154.11,208.75,156.21,206.04,159.6,206.04z M162.74,210.83c-0.08-1.62-1.43-3.08-3.14-3.08c-1.88,0-3.33,1.34-3.53,3.08H162.74z"
		/>
	<path fill="#FFFFFF" d="M167.72,206.85c0-0.28,0.25-0.53,0.53-0.53h0.53c0.22,0,0.42,0.14,0.48,0.39l0.22,0.81
		c0,0,1.04-1.48,3.36-1.48c0.84,0,2.24,0.14,1.96,0.92l-0.34,0.95c-0.14,0.36-0.39,0.36-0.67,0.25c-0.25-0.11-0.67-0.22-1.09-0.22
		c-2.13,0-3.05,1.57-3.05,1.57v7.48c0,0.28-0.25,0.53-0.53,0.53h-0.87c-0.28,0-0.53-0.25-0.53-0.53V206.85z"/>
	<path fill="#FFFFFF" d="M177.07,206.85c0-0.28,0.25-0.53,0.53-0.53h0.53c0.25,0,0.39,0.11,0.45,0.34l0.25,0.87
		c0,0,1.32-1.48,3.64-1.48c1.65,0,2.86,0.64,3.58,1.82c0.14-0.11,1.93-1.82,4.17-1.82c3.25,0,4.34,2.13,4.34,5.04v5.91
		c0,0.28-0.25,0.53-0.53,0.53h-0.9c-0.28,0-0.53-0.25-0.53-0.53v-5.91c0-2.1-0.9-3.16-2.52-3.16c-1.82,0-3.02,1.2-3.42,1.57
		c0.08,0.48,0.14,1.01,0.14,1.6v5.91c0,0.28-0.25,0.53-0.53,0.53h-0.9c-0.28,0-0.53-0.25-0.53-0.53v-5.91
		c0-2.13-0.95-3.16-2.66-3.16c-1.99,0-3.19,1.6-3.19,1.6v7.48c0,0.28-0.25,0.53-0.53,0.53h-0.87c-0.28,0-0.53-0.25-0.53-0.53V206.85
		z"/>
</g>
<g>
	<path fill="#FFFFFF" d="M428.27,197.64c2.83,0,4.87,0.98,6.78,2.6c0.22,0.22,0.25,0.56,0.03,0.78l-0.76,0.76
		c-0.22,0.28-0.45,0.25-0.73-0.03c-1.46-1.26-3.44-2.1-5.35-2.1c-4.42,0-7.81,3.72-7.81,8.06c0,4.31,3.39,8.04,7.81,8.04
		c2.44,0,3.86-0.98,5.35-2.1c0.28-0.22,0.5-0.2,0.67-0.08l0.84,0.76c0.22,0.17,0.17,0.56-0.03,0.76c-1.9,1.85-4.31,2.72-6.8,2.72
		c-5.6,0-10.11-4.45-10.11-10.05S422.67,197.64,428.27,197.64z"/>
	<path fill="#FFFFFF" d="M442.94,206.04c3.11,0,5.57,2.69,5.57,5.85c0,3.22-2.46,5.91-5.57,5.91s-5.57-2.69-5.57-5.91
		C437.37,208.73,439.83,206.04,442.94,206.04z M442.94,215.98c2.04,0,3.64-1.82,3.64-4.09c0-2.21-1.6-4-3.64-4s-3.64,1.79-3.64,4
		C439.3,214.16,440.89,215.98,442.94,215.98z"/>
	<path fill="#FFFFFF" d="M451.67,206.85c0-0.28,0.25-0.53,0.53-0.53h0.53c0.25,0,0.39,0.11,0.45,0.34l0.25,0.87
		c0,0,1.6-1.48,3.92-1.48c3.25,0,4.34,2.13,4.34,5.04v5.91c0,0.28-0.25,0.53-0.53,0.53h-0.9c-0.28,0-0.53-0.25-0.53-0.53v-5.91
		c0-2.13-0.95-3.16-2.52-3.16c-2.1,0-3.61,1.6-3.61,1.6v7.48c0,0.28-0.25,0.53-0.53,0.53h-0.87c-0.28,0-0.53-0.25-0.53-0.53V206.85z
		"/>
	<path fill="#FFFFFF" d="M466.26,208h-1.43c-0.31,0-0.53-0.25-0.53-0.53v-0.62c0-0.31,0.22-0.53,0.53-0.53h1.43v-3.11
		c0-0.28,0.25-0.53,0.53-0.53l0.9-0.06c0.28,0,0.5,0.25,0.5,0.53v3.16h3.25c0.31,0,0.53,0.22,0.53,0.53v0.62
		c0,0.28-0.22,0.53-0.53,0.53h-3.25v6.55c0,1.12,0.28,1.34,0.92,1.34c0.7,0,1.68-0.42,2.04-0.62c0.42-0.22,0.53-0.06,0.67,0.17
		l0.42,0.7c0.2,0.34,0.11,0.5-0.2,0.7c-0.39,0.25-1.9,0.95-3.22,0.95c-2.24,0-2.58-1.34-2.58-3.08V208z"/>
	<path fill="#FFFFFF" d="M474.72,199.82c0-0.76,0.59-1.34,1.32-1.34c0.76,0,1.34,0.59,1.34,1.34c0,0.73-0.59,1.32-1.34,1.32
		C475.31,201.14,474.72,200.55,474.72,199.82z M475.11,206.85c0-0.28,0.25-0.53,0.53-0.53h0.87c0.28,0,0.53,0.25,0.53,0.53v10.14
		c0,0.28-0.25,0.53-0.53,0.53h-0.87c-0.28,0-0.53-0.25-0.53-0.53V206.85z"/>
	<path fill="#FFFFFF" d="M481.02,206.85c0-0.28,0.25-0.53,0.53-0.53h0.53c0.25,0,0.39,0.11,0.45,0.34l0.25,0.87
		c0,0,1.6-1.48,3.92-1.48c3.25,0,4.34,2.13,4.34,5.04v5.91c0,0.28-0.25,0.53-0.53,0.53h-0.9c-0.28,0-0.53-0.25-0.53-0.53v-5.91
		c0-2.13-0.95-3.16-2.52-3.16c-2.1,0-3.61,1.6-3.61,1.6v7.48c0,0.28-0.25,0.53-0.53,0.53h-0.87c-0.28,0-0.53-0.25-0.53-0.53V206.85z
		"/>
	<path fill="#FFFFFF" d="M494.74,206.85c0-0.28,0.25-0.53,0.53-0.53h0.9c0.28,0,0.53,0.25,0.53,0.53v5.91
		c0,2.13,0.95,3.16,2.52,3.16c2.13,0,3.33-1.6,3.33-1.6c0-0.62,0-1.26,0-7.48c0-0.28,0.25-0.53,0.53-0.53h0.87
		c0.28,0,0.53,0.25,0.53,0.53v10.14c0,0.28-0.25,0.53-0.53,0.53h-0.53c-0.31,0-0.42-0.2-0.5-0.48l-0.2-0.73c0,0-1.32,1.48-3.64,1.48
		c-3.25,0-4.34-2.1-4.34-5.07V206.85z"/>
	<path fill="#FFFFFF" d="M513.22,206.04c3.11,0,5.57,2.69,5.57,5.85c0,3.22-2.46,5.91-5.57,5.91c-3.11,0-5.57-2.69-5.57-5.91
		C507.64,208.73,510.11,206.04,513.22,206.04z M513.22,215.98c2.04,0,3.64-1.82,3.64-4.09c0-2.21-1.6-4-3.64-4
		c-2.04,0-3.64,1.79-3.64,4C509.58,214.16,511.17,215.98,513.22,215.98z"/>
	<path fill="#FFFFFF" d="M521.81,206.85c0-0.28,0.25-0.53,0.53-0.53h0.9c0.28,0,0.53,0.25,0.53,0.53v5.91
		c0,2.13,0.95,3.16,2.52,3.16c2.13,0,3.33-1.6,3.33-1.6c0-0.62,0-1.26,0-7.48c0-0.28,0.25-0.53,0.53-0.53h0.87
		c0.28,0,0.53,0.25,0.53,0.53v10.14c0,0.28-0.25,0.53-0.53,0.53h-0.53c-0.31,0-0.42-0.2-0.5-0.48l-0.2-0.73c0,0-1.32,1.48-3.64,1.48
		c-3.25,0-4.34-2.1-4.34-5.07V206.85z"/>
	<path fill="#FFFFFF" d="M534.86,215.95c0.11-0.17,0.31-0.56,0.39-0.7c0.14-0.22,0.45-0.28,0.76-0.08c0,0,1.2,0.98,2.63,0.98
		c1.15,0,1.82-0.59,1.82-1.34c0-0.98-0.84-1.43-2.46-2.24c-1.48-0.73-3.19-1.71-3.19-3.61c0-1.18,0.95-2.91,3.56-2.91
		c1.46,0,2.58,0.5,3.11,0.87c0.25,0.17,0.34,0.56,0.17,0.87l-0.22,0.45c-0.17,0.31-0.56,0.39-0.81,0.25c0,0-1.21-0.67-2.24-0.67
		c-1.26,0-1.6,0.64-1.6,1.12c0,0.92,0.92,1.34,2.07,1.9c1.93,0.92,3.67,1.79,3.67,3.81c0,1.62-1.57,3.16-3.86,3.16
		c-1.88,0-3.02-0.78-3.64-1.26C534.86,216.43,534.78,216.15,534.86,215.95z"/>
	<path fill="#FFFFFF" d="M553.68,225.39c0,0.28-0.25,0.53-0.53,0.53h-0.87c-0.28,0-0.53-0.25-0.53-0.53v-18.54
		c0-0.28,0.25-0.53,0.53-0.53h0.59c0.25,0,0.34,0.08,0.45,0.36l0.2,0.53c0,0,1.23-1.18,3.25-1.18c3.05,0,5.29,2.69,5.29,5.91
		c0,3.28-2.3,5.85-5.38,5.85c-1.85,0-3-0.92-3-0.92V225.39z M556.42,215.92c2.16,0,3.67-1.76,3.67-4c0-2.18-1.29-4.12-3.53-4.12
		c-1.82,0-2.86,1.37-2.86,1.37v5.77C553.7,214.94,554.88,215.92,556.42,215.92z"/>
	<path fill="#FFFFFF" d="M565.21,206.85c0-0.28,0.25-0.53,0.53-0.53h0.53c0.22,0,0.42,0.14,0.48,0.39l0.22,0.81
		c0,0,1.04-1.48,3.36-1.48c0.84,0,2.24,0.14,1.96,0.92l-0.34,0.95c-0.14,0.36-0.39,0.36-0.67,0.25c-0.25-0.11-0.67-0.22-1.09-0.22
		c-2.13,0-3.05,1.57-3.05,1.57v7.48c0,0.28-0.25,0.53-0.53,0.53h-0.87c-0.28,0-0.53-0.25-0.53-0.53V206.85z"/>
	<path fill="#FFFFFF" d="M579.16,206.04c2.94,0,5.07,2.18,5.07,5.12c0,0.2-0.03,0.56-0.06,0.76c-0.03,0.28-0.25,0.48-0.5,0.48h-8.06
		c0.11,1.88,1.76,3.64,3.75,3.64c1.18,0,2.13-0.45,2.77-0.84c0.39-0.22,0.56-0.36,0.78-0.06c0.17,0.22,0.31,0.42,0.48,0.64
		c0.2,0.25,0.31,0.42-0.11,0.73c-0.67,0.53-2.18,1.29-4.12,1.29c-3.39,0-5.49-2.66-5.49-5.88
		C573.67,208.75,575.77,206.04,579.16,206.04z M582.29,210.83c-0.08-1.62-1.43-3.08-3.14-3.08c-1.88,0-3.33,1.34-3.53,3.08H582.29z"
		/>
	<path fill="#FFFFFF" d="M587.28,206.85c0-0.28,0.25-0.53,0.53-0.53h0.53c0.25,0,0.39,0.11,0.45,0.34l0.25,0.87
		c0,0,1.32-1.48,3.64-1.48c1.65,0,2.86,0.64,3.58,1.82c0.14-0.11,1.93-1.82,4.17-1.82c3.25,0,4.34,2.13,4.34,5.04v5.91
		c0,0.28-0.25,0.53-0.53,0.53h-0.9c-0.28,0-0.53-0.25-0.53-0.53v-5.91c0-2.1-0.9-3.16-2.52-3.16c-1.82,0-3.02,1.2-3.42,1.57
		c0.08,0.48,0.14,1.01,0.14,1.6v5.91c0,0.28-0.25,0.53-0.53,0.53h-0.9c-0.28,0-0.53-0.25-0.53-0.53v-5.91
		c0-2.13-0.95-3.16-2.66-3.16c-1.99,0-3.19,1.6-3.19,1.6v7.48c0,0.28-0.25,0.53-0.53,0.53h-0.87c-0.28,0-0.53-0.25-0.53-0.53V206.85
		z"/>
	<path fill="#FFFFFF" d="M608.22,199.82c0-0.76,0.59-1.34,1.32-1.34c0.76,0,1.34,0.59,1.34,1.34c0,0.73-0.59,1.32-1.34,1.32
		C608.81,201.14,608.22,200.55,608.22,199.82z M608.61,206.85c0-0.28,0.25-0.53,0.53-0.53h0.87c0.28,0,0.53,0.25,0.53,0.53v10.14
		c0,0.28-0.25,0.53-0.53,0.53h-0.87c-0.28,0-0.53-0.25-0.53-0.53V206.85z"/>
	<path fill="#FFFFFF" d="M614.38,206.85c0-0.28,0.25-0.53,0.53-0.53h0.9c0.28,0,0.53,0.25,0.53,0.53v5.91
		c0,2.13,0.95,3.16,2.52,3.16c2.13,0,3.33-1.6,3.33-1.6c0-0.62,0-1.26,0-7.48c0-0.28,0.25-0.53,0.53-0.53h0.87
		c0.28,0,0.53,0.25,0.53,0.53v10.14c0,0.28-0.25,0.53-0.53,0.53h-0.53c-0.31,0-0.42-0.2-0.5-0.48l-0.2-0.73c0,0-1.32,1.48-3.64,1.48
		c-3.25,0-4.34-2.1-4.34-5.07V206.85z"/>
	<path fill="#FFFFFF" d="M628.1,206.85c0-0.28,0.25-0.53,0.53-0.53h0.53c0.25,0,0.39,0.11,0.45,0.34l0.25,0.87
		c0,0,1.32-1.48,3.64-1.48c1.65,0,2.86,0.64,3.58,1.82c0.14-0.11,1.93-1.82,4.17-1.82c3.25,0,4.34,2.13,4.34,5.04v5.91
		c0,0.28-0.25,0.53-0.53,0.53h-0.9c-0.28,0-0.53-0.25-0.53-0.53v-5.91c0-2.1-0.9-3.16-2.52-3.16c-1.82,0-3.02,1.2-3.42,1.57
		c0.08,0.48,0.14,1.01,0.14,1.6v5.91c0,0.28-0.25,0.53-0.53,0.53h-0.9c-0.28,0-0.53-0.25-0.53-0.53v-5.91
		c0-2.13-0.95-3.16-2.66-3.16c-1.99,0-3.19,1.6-3.19,1.6v7.48c0,0.28-0.25,0.53-0.53,0.53h-0.87c-0.28,0-0.53-0.25-0.53-0.53V206.85
		z"/>
</g>
<g>
	<path fill="#FFFFFF" d="M419.59,239.95c0-0.28,0.22-0.53,0.53-0.53h1.09c0.28,0,0.53,0.25,0.53,0.53v17.19h8.06
		c0.31,0,0.53,0.25,0.53,0.53v0.81c0,0.28-0.22,0.53-0.53,0.53h-9.69c-0.31,0-0.53-0.25-0.53-0.53V239.95z"/>
	<path fill="#FFFFFF" d="M432.07,241.32c0-0.76,0.59-1.34,1.32-1.34c0.76,0,1.34,0.59,1.34,1.34c0,0.73-0.59,1.32-1.34,1.32
		C432.66,242.64,432.07,242.05,432.07,241.32z M432.47,248.35c0-0.28,0.25-0.53,0.53-0.53h0.87c0.28,0,0.53,0.25,0.53,0.53v10.13
		c0,0.28-0.25,0.53-0.53,0.53H433c-0.28,0-0.53-0.25-0.53-0.53V248.35z"/>
	<path fill="#FFFFFF" d="M438.37,248.35c0-0.28,0.25-0.53,0.53-0.53h0.53c0.25,0,0.39,0.11,0.45,0.34l0.25,0.87
		c0,0,1.32-1.48,3.64-1.48c1.65,0,2.86,0.64,3.58,1.82c0.14-0.11,1.93-1.82,4.17-1.82c3.25,0,4.34,2.13,4.34,5.04v5.91
		c0,0.28-0.25,0.53-0.53,0.53h-0.9c-0.28,0-0.53-0.25-0.53-0.53v-5.91c0-2.1-0.9-3.16-2.52-3.16c-1.82,0-3.02,1.2-3.42,1.57
		c0.08,0.48,0.14,1.01,0.14,1.6v5.91c0,0.28-0.25,0.53-0.53,0.53h-0.9c-0.28,0-0.53-0.25-0.53-0.53v-5.91
		c0-2.13-0.95-3.16-2.66-3.16c-1.99,0-3.19,1.6-3.19,1.6v7.47c0,0.28-0.25,0.53-0.53,0.53h-0.87c-0.28,0-0.53-0.25-0.53-0.53V248.35
		z"/>
	<path fill="#FFFFFF" d="M459.32,241.32c0-0.76,0.59-1.34,1.32-1.34c0.76,0,1.34,0.59,1.34,1.34c0,0.73-0.59,1.32-1.34,1.32
		C459.91,242.64,459.32,242.05,459.32,241.32z M459.71,248.35c0-0.28,0.25-0.53,0.53-0.53h0.87c0.28,0,0.53,0.25,0.53,0.53v10.13
		c0,0.28-0.25,0.53-0.53,0.53h-0.87c-0.28,0-0.53-0.25-0.53-0.53V248.35z"/>
	<path fill="#FFFFFF" d="M466.35,249.5h-1.43c-0.31,0-0.53-0.25-0.53-0.53v-0.62c0-0.31,0.22-0.53,0.53-0.53h1.43v-3.11
		c0-0.28,0.25-0.53,0.53-0.53l0.9-0.06c0.28,0,0.5,0.25,0.5,0.53v3.16h3.25c0.31,0,0.53,0.22,0.53,0.53v0.62
		c0,0.28-0.22,0.53-0.53,0.53h-3.25v6.55c0,1.12,0.28,1.34,0.92,1.34c0.7,0,1.68-0.42,2.04-0.62c0.42-0.22,0.53-0.06,0.67,0.17
		l0.42,0.7c0.2,0.34,0.11,0.5-0.2,0.7c-0.39,0.25-1.9,0.95-3.22,0.95c-2.24,0-2.58-1.34-2.58-3.08V249.5z"/>
	<path fill="#FFFFFF" d="M479.87,247.54c2.94,0,5.07,2.18,5.07,5.12c0,0.2-0.03,0.56-0.06,0.76c-0.03,0.28-0.25,0.48-0.5,0.48h-8.06
		c0.11,1.88,1.76,3.64,3.75,3.64c1.18,0,2.13-0.45,2.77-0.84c0.39-0.22,0.56-0.36,0.78-0.06c0.17,0.22,0.31,0.42,0.48,0.64
		c0.2,0.25,0.31,0.42-0.11,0.73c-0.67,0.53-2.18,1.29-4.12,1.29c-3.39,0-5.49-2.66-5.49-5.88
		C474.38,250.25,476.48,247.54,479.87,247.54z M483.01,252.33c-0.08-1.62-1.43-3.08-3.14-3.08c-1.88,0-3.33,1.34-3.53,3.08H483.01z"
		/>
	<path fill="#FFFFFF" d="M492.55,247.54c1.85,0,3,0.73,3,0.73v-8.32c0-0.28,0.25-0.53,0.53-0.53h0.87c0.28,0,0.53,0.25,0.53,0.53
		v18.54c0,0.28-0.25,0.53-0.53,0.53h-0.59c-0.25,0-0.42-0.2-0.48-0.45l-0.17-0.76c0,0-1.34,1.48-3.44,1.48
		c-2.86,0-5.1-2.69-5.1-5.91C487.18,250.11,489.19,247.54,492.55,247.54z M492.47,257.53c2.02,0,3.05-1.85,3.05-1.85v-5.6
		c0,0-1.18-0.67-2.72-0.67c-2.44,0-3.67,1.76-3.67,4C489.14,255.6,490.43,257.53,492.47,257.53z"/>
	<path fill="#FFFFFF" d="M509.66,266.88c0,0.28-0.25,0.53-0.53,0.53h-0.87c-0.28,0-0.53-0.25-0.53-0.53v-18.54
		c0-0.28,0.25-0.53,0.53-0.53h0.59c0.25,0,0.34,0.08,0.45,0.36l0.2,0.53c0,0,1.23-1.18,3.25-1.18c3.05,0,5.29,2.69,5.29,5.91
		c0,3.28-2.3,5.85-5.38,5.85c-1.85,0-3-0.92-3-0.92V266.88z M512.4,257.42c2.16,0,3.67-1.76,3.67-4c0-2.18-1.29-4.12-3.53-4.12
		c-1.82,0-2.86,1.37-2.86,1.37v5.77C509.69,256.44,510.87,257.42,512.4,257.42z"/>
	<path fill="#FFFFFF" d="M524.87,251.91c1.2,0,2.38,0.36,2.38,0.36c0.03-2.07-0.22-3.02-1.82-3.02c-1.54,0-2.86,0.42-3.36,0.62
		c-0.28,0.11-0.45-0.03-0.53-0.28l-0.22-0.7c-0.11-0.34,0.06-0.5,0.31-0.62c0.17-0.08,1.79-0.73,3.89-0.73
		c2.86,0,3.56,1.46,3.56,4.73v6.21c0,0.28-0.25,0.53-0.53,0.53H528c-0.31,0-0.39-0.17-0.48-0.42l-0.22-0.76
		c-0.59,0.59-1.74,1.46-3.47,1.46c-1.96,0-3.44-1.43-3.44-3.67C520.38,253.5,521.98,251.91,524.87,251.91z M524.14,257.62
		c1.4,0,2.6-0.87,3.08-1.57v-2.21c-0.34-0.2-1.12-0.45-2.35-0.45c-1.57,0-2.69,0.79-2.69,2.24
		C522.18,256.75,522.93,257.62,524.14,257.62z"/>
	<path fill="#FFFFFF" d="M531.36,248.43c-0.17-0.36,0-0.62,0.42-0.62h1.23c0.22,0,0.39,0.14,0.48,0.31l4.14,8.57h0.03l3.92-8.57
		c0.08-0.17,0.28-0.31,0.48-0.31h1.06c0.42,0,0.62,0.28,0.42,0.64l-8.6,18.62c-0.08,0.17-0.28,0.34-0.48,0.34h-1.04
		c-0.42,0-0.64-0.31-0.45-0.7l3.58-7.73L531.36,248.43z"/>
	<path fill="#FFFFFF" d="M546,248.35c0-0.28,0.25-0.53,0.53-0.53h0.53c0.25,0,0.39,0.11,0.45,0.34l0.25,0.87
		c0,0,1.32-1.48,3.64-1.48c1.65,0,2.86,0.64,3.58,1.82c0.14-0.11,1.93-1.82,4.17-1.82c3.25,0,4.34,2.13,4.34,5.04v5.91
		c0,0.28-0.25,0.53-0.53,0.53h-0.9c-0.28,0-0.53-0.25-0.53-0.53v-5.91c0-2.1-0.9-3.16-2.52-3.16c-1.82,0-3.02,1.2-3.42,1.57
		c0.08,0.48,0.14,1.01,0.14,1.6v5.91c0,0.28-0.25,0.53-0.53,0.53h-0.9c-0.28,0-0.53-0.25-0.53-0.53v-5.91
		c0-2.13-0.95-3.16-2.66-3.16c-1.99,0-3.19,1.6-3.19,1.6v7.47c0,0.28-0.25,0.53-0.53,0.53h-0.87c-0.28,0-0.53-0.25-0.53-0.53V248.35
		z"/>
	<path fill="#FFFFFF" d="M572.02,247.54c2.94,0,5.07,2.18,5.07,5.12c0,0.2-0.03,0.56-0.06,0.76c-0.03,0.28-0.25,0.48-0.5,0.48h-8.06
		c0.11,1.88,1.76,3.64,3.75,3.64c1.18,0,2.13-0.45,2.77-0.84c0.39-0.22,0.56-0.36,0.78-0.06c0.17,0.22,0.31,0.42,0.48,0.64
		c0.2,0.25,0.31,0.42-0.11,0.73c-0.67,0.53-2.18,1.29-4.12,1.29c-3.39,0-5.49-2.66-5.49-5.88
		C566.53,250.25,568.63,247.54,572.02,247.54z M575.15,252.33c-0.08-1.62-1.43-3.08-3.14-3.08c-1.88,0-3.33,1.34-3.53,3.08H575.15z"
		/>
	<path fill="#FFFFFF" d="M580.14,248.35c0-0.28,0.25-0.53,0.53-0.53h0.53c0.25,0,0.39,0.11,0.45,0.34l0.25,0.87
		c0,0,1.6-1.48,3.92-1.48c3.25,0,4.34,2.13,4.34,5.04v5.91c0,0.28-0.25,0.53-0.53,0.53h-0.9c-0.28,0-0.53-0.25-0.53-0.53v-5.91
		c0-2.13-0.95-3.16-2.52-3.16c-2.1,0-3.61,1.6-3.61,1.6v7.47c0,0.28-0.25,0.53-0.53,0.53h-0.87c-0.28,0-0.53-0.25-0.53-0.53V248.35z
		"/>
	<path fill="#FFFFFF" d="M594.72,249.5h-1.43c-0.31,0-0.53-0.25-0.53-0.53v-0.62c0-0.31,0.22-0.53,0.53-0.53h1.43v-3.11
		c0-0.28,0.25-0.53,0.53-0.53l0.9-0.06c0.28,0,0.5,0.25,0.5,0.53v3.16h3.25c0.31,0,0.53,0.22,0.53,0.53v0.62
		c0,0.28-0.22,0.53-0.53,0.53h-3.25v6.55c0,1.12,0.28,1.34,0.92,1.34c0.7,0,1.68-0.42,2.04-0.62c0.42-0.22,0.53-0.06,0.67,0.17
		l0.42,0.7c0.2,0.34,0.11,0.5-0.2,0.7c-0.39,0.25-1.9,0.95-3.22,0.95c-2.24,0-2.58-1.34-2.58-3.08V249.5z"/>
</g>
<g>
	<path fill="#FFFFFF" d="M418.33,297.58c0.14-0.17,0.28-0.36,0.42-0.53c0.28-0.36,0.59-0.59,0.98-0.25c0.2,0.17,2.24,2.13,4.73,2.13
		c2.27,0,3.75-1.43,3.75-3.08c0-1.93-1.68-3.08-4.9-4.42c-3.08-1.34-4.93-2.6-4.93-5.8c0-1.9,1.51-4.98,5.96-4.98
		c2.74,0,4.79,1.43,4.79,1.43c0.17,0.08,0.5,0.42,0.17,0.95c-0.11,0.17-0.22,0.36-0.34,0.53c-0.25,0.39-0.53,0.5-0.98,0.25
		c-0.2-0.11-1.96-1.29-3.67-1.29c-2.97,0-3.86,1.9-3.86,3.08c0,1.88,1.43,2.97,3.78,3.95c3.78,1.54,6.22,2.97,6.22,6.22
		c0,2.91-2.77,5.04-6.05,5.04c-3.3,0-5.54-1.93-5.91-2.27C418.27,298.33,417.99,298.11,418.33,297.58z"/>
	<path fill="#FFFFFF" d="M433.05,282.82c0-0.76,0.59-1.34,1.32-1.34c0.76,0,1.34,0.59,1.34,1.34c0,0.73-0.59,1.32-1.34,1.32
		C433.64,284.14,433.05,283.55,433.05,282.82z M433.45,289.85c0-0.28,0.25-0.53,0.53-0.53h0.87c0.28,0,0.53,0.25,0.53,0.53v10.13
		c0,0.28-0.25,0.53-0.53,0.53h-0.87c-0.28,0-0.53-0.25-0.53-0.53V289.85z"/>
	<path fill="#FFFFFF" d="M439.35,289.85c0-0.28,0.25-0.53,0.53-0.53h0.53c0.25,0,0.39,0.11,0.45,0.34l0.25,0.87
		c0,0,1.6-1.48,3.92-1.48c3.25,0,4.34,2.13,4.34,5.04v5.91c0,0.28-0.25,0.53-0.53,0.53h-0.9c-0.28,0-0.53-0.25-0.53-0.53v-5.91
		c0-2.13-0.95-3.16-2.52-3.16c-2.1,0-3.61,1.6-3.61,1.6v7.47c0,0.28-0.25,0.53-0.53,0.53h-0.87c-0.28,0-0.53-0.25-0.53-0.53V289.85z
		"/>
	<path fill="#FFFFFF" d="M453.97,296.77c0,0-0.9-1.15-0.9-2.8c0-2.6,1.82-4.93,4.73-4.93h4.73c0.31,0,0.53,0.22,0.53,0.53v0.48
		c0,0.2-0.11,0.45-0.31,0.48l-1.51,0.31c0,0,1.26,0.92,1.26,3.14c0,2.55-1.82,4.76-4.7,4.76c-1.79,0-2.66-0.7-2.66-0.7
		s-1.23,0.56-1.23,1.68c0,0.7,0.5,1.37,1.54,1.37h4.03c2.35,0,4.2,1.15,4.2,3.58c0,2.32-2.41,4.54-5.8,4.54
		c-3.75,0-5.38-2.02-5.38-3.86c0-1.68,1.34-2.44,1.62-2.6v-0.08c-0.73-0.2-2.04-0.92-2.04-2.66
		C452.09,297.86,453.97,296.77,453.97,296.77z M457.86,307.38c1.85,0,3.75-1.04,3.75-2.66c0-0.36-0.17-1.82-2.13-1.82
		c-1.04,0-2.07,0-3.11,0c0,0-1.88,0.5-1.88,2.16C454.5,306.4,455.96,307.38,457.86,307.38z M460.63,293.91
		c0-1.85-1.12-3.14-2.8-3.14c-1.71,0-2.94,1.29-2.94,3.14s1.23,3.14,2.94,3.14C459.51,297.04,460.63,295.76,460.63,293.91z"/>
	<path fill="#FFFFFF" d="M466.09,281.45c0-0.28,0.25-0.53,0.53-0.53h0.87c0.28,0,0.53,0.25,0.53,0.53v18.54
		c0,0.28-0.25,0.53-0.53,0.53h-0.87c-0.28,0-0.53-0.25-0.53-0.53V281.45z"/>
	<path fill="#FFFFFF" d="M476.71,289.04c2.94,0,5.07,2.18,5.07,5.12c0,0.2-0.03,0.56-0.06,0.76c-0.03,0.28-0.25,0.48-0.5,0.48h-8.06
		c0.11,1.88,1.76,3.64,3.75,3.64c1.18,0,2.13-0.45,2.77-0.84c0.39-0.22,0.56-0.36,0.78-0.06c0.17,0.22,0.31,0.42,0.48,0.64
		c0.2,0.25,0.31,0.42-0.11,0.73c-0.67,0.53-2.18,1.29-4.12,1.29c-3.39,0-5.49-2.66-5.49-5.88
		C471.22,291.75,473.32,289.04,476.71,289.04z M479.84,293.83c-0.08-1.62-1.43-3.08-3.14-3.08c-1.88,0-3.33,1.34-3.53,3.08H479.84z"
		/>
	<path fill="#FFFFFF" d="M493,308.38c0,0.28-0.25,0.53-0.53,0.53h-0.87c-0.28,0-0.53-0.25-0.53-0.53v-18.54
		c0-0.28,0.25-0.53,0.53-0.53h0.59c0.25,0,0.34,0.08,0.45,0.36l0.2,0.53c0,0,1.23-1.18,3.25-1.18c3.05,0,5.29,2.69,5.29,5.91
		c0,3.28-2.3,5.85-5.38,5.85c-1.85,0-3-0.92-3-0.92V308.38z M495.75,298.92c2.16,0,3.67-1.76,3.67-4c0-2.18-1.29-4.12-3.53-4.12
		c-1.82,0-2.86,1.37-2.86,1.37v5.77C493.03,297.94,494.21,298.92,495.75,298.92z"/>
	<path fill="#FFFFFF" d="M504.54,289.85c0-0.28,0.25-0.53,0.53-0.53h0.53c0.22,0,0.42,0.14,0.48,0.39l0.22,0.81
		c0,0,1.04-1.48,3.36-1.48c0.84,0,2.24,0.14,1.96,0.92l-0.34,0.95c-0.14,0.36-0.39,0.36-0.67,0.25c-0.25-0.11-0.67-0.22-1.09-0.22
		c-2.13,0-3.05,1.57-3.05,1.57v7.47c0,0.28-0.25,0.53-0.53,0.53h-0.87c-0.28,0-0.53-0.25-0.53-0.53V289.85z"/>
	<path fill="#FFFFFF" d="M518.48,289.04c2.94,0,5.07,2.18,5.07,5.12c0,0.2-0.03,0.56-0.06,0.76c-0.03,0.28-0.25,0.48-0.5,0.48h-8.06
		c0.11,1.88,1.76,3.64,3.75,3.64c1.18,0,2.13-0.45,2.77-0.84c0.39-0.22,0.56-0.36,0.78-0.06c0.17,0.22,0.31,0.42,0.48,0.64
		c0.2,0.25,0.31,0.42-0.11,0.73c-0.67,0.53-2.18,1.29-4.12,1.29c-3.39,0-5.49-2.66-5.49-5.88
		C512.99,291.75,515.09,289.04,518.48,289.04z M521.62,293.83c-0.08-1.62-1.43-3.08-3.14-3.08c-1.88,0-3.33,1.34-3.53,3.08H521.62z"
		/>
	<path fill="#FFFFFF" d="M526.6,289.85c0-0.28,0.25-0.53,0.53-0.53h0.53c0.25,0,0.39,0.11,0.45,0.34l0.25,0.87
		c0,0,1.32-1.48,3.64-1.48c1.65,0,2.86,0.64,3.58,1.82c0.14-0.11,1.93-1.82,4.17-1.82c3.25,0,4.34,2.13,4.34,5.04v5.91
		c0,0.28-0.25,0.53-0.53,0.53h-0.9c-0.28,0-0.53-0.25-0.53-0.53v-5.91c0-2.1-0.9-3.16-2.52-3.16c-1.82,0-3.02,1.2-3.42,1.57
		c0.08,0.48,0.14,1.01,0.14,1.6v5.91c0,0.28-0.25,0.53-0.53,0.53h-0.9c-0.28,0-0.53-0.25-0.53-0.53v-5.91
		c0-2.13-0.95-3.16-2.66-3.16c-1.99,0-3.19,1.6-3.19,1.6v7.47c0,0.28-0.25,0.53-0.53,0.53h-0.87c-0.28,0-0.53-0.25-0.53-0.53V289.85
		z"/>
	<path fill="#FFFFFF" d="M547.54,282.82c0-0.76,0.59-1.34,1.32-1.34c0.76,0,1.34,0.59,1.34,1.34c0,0.73-0.59,1.32-1.34,1.32
		C548.13,284.14,547.54,283.55,547.54,282.82z M547.94,289.85c0-0.28,0.25-0.53,0.53-0.53h0.87c0.28,0,0.53,0.25,0.53,0.53v10.13
		c0,0.28-0.25,0.53-0.53,0.53h-0.87c-0.28,0-0.53-0.25-0.53-0.53V289.85z"/>
	<path fill="#FFFFFF" d="M553.71,289.85c0-0.28,0.25-0.53,0.53-0.53h0.9c0.28,0,0.53,0.25,0.53,0.53v5.91
		c0,2.13,0.95,3.16,2.52,3.16c2.13,0,3.33-1.6,3.33-1.6c0-0.62,0-1.26,0-7.48c0-0.28,0.25-0.53,0.53-0.53h0.87
		c0.28,0,0.53,0.25,0.53,0.53v10.13c0,0.28-0.25,0.53-0.53,0.53h-0.53c-0.31,0-0.42-0.2-0.5-0.48l-0.2-0.73c0,0-1.32,1.48-3.64,1.48
		c-3.25,0-4.34-2.1-4.34-5.07V289.85z"/>
	<path fill="#FFFFFF" d="M567.42,289.85c0-0.28,0.25-0.53,0.53-0.53h0.53c0.25,0,0.39,0.11,0.45,0.34l0.25,0.87
		c0,0,1.32-1.48,3.64-1.48c1.65,0,2.86,0.64,3.58,1.82c0.14-0.11,1.93-1.82,4.17-1.82c3.25,0,4.34,2.13,4.34,5.04v5.91
		c0,0.28-0.25,0.53-0.53,0.53h-0.9c-0.28,0-0.53-0.25-0.53-0.53v-5.91c0-2.1-0.9-3.16-2.52-3.16c-1.82,0-3.02,1.2-3.42,1.57
		c0.08,0.48,0.14,1.01,0.14,1.6v5.91c0,0.28-0.25,0.53-0.53,0.53h-0.9c-0.28,0-0.53-0.25-0.53-0.53v-5.91
		c0-2.13-0.95-3.16-2.66-3.16c-1.99,0-3.19,1.6-3.19,1.6v7.47c0,0.28-0.25,0.53-0.53,0.53h-0.87c-0.28,0-0.53-0.25-0.53-0.53V289.85
		z"/>
</g>
<g>
	<path fill="#FFFFFF" d="M52.59,239.45c0-0.28,0.22-0.53,0.5-0.53h6.27c5.4,0,9.83,4.4,9.83,9.77c0,5.43-4.42,9.83-9.83,9.83h-6.27
		c-0.28,0-0.5-0.25-0.5-0.53V239.45z M58.91,256.58c4.59,0,7.92-3.28,7.92-7.9c0-4.59-3.33-7.87-7.92-7.87h-4.2v15.76H58.91z"/>
	<path fill="#FFFFFF" d="M77,247.04c2.94,0,5.07,2.18,5.07,5.12c0,0.2-0.03,0.56-0.06,0.76c-0.03,0.28-0.25,0.48-0.5,0.48h-8.06
		c0.11,1.88,1.76,3.64,3.75,3.64c1.18,0,2.13-0.45,2.77-0.84c0.39-0.22,0.56-0.36,0.78-0.06c0.17,0.22,0.31,0.42,0.48,0.64
		c0.2,0.25,0.31,0.42-0.11,0.73c-0.67,0.53-2.18,1.29-4.12,1.29c-3.39,0-5.49-2.66-5.49-5.88C71.51,249.75,73.61,247.04,77,247.04z
		 M80.14,251.83c-0.08-1.62-1.43-3.08-3.14-3.08c-1.88,0-3.33,1.34-3.53,3.08H80.14z"/>
	<path fill="#FFFFFF" d="M90.05,247.04c1.68,0,3,0.67,4,1.96c0.2,0.25,0.14,0.59-0.11,0.78l-0.53,0.45
		c-0.42,0.39-0.56,0.11-0.81-0.11c-0.56-0.64-1.48-1.18-2.58-1.18c-2.1,0-3.72,1.74-3.72,3.98c0,2.24,1.6,4.03,3.7,4.03
		c1.68,0,2.32-0.84,2.97-1.46c0.34-0.34,0.53-0.28,0.84-0.06l0.31,0.22c0.28,0.2,0.36,0.5,0.2,0.78c-0.84,1.34-2.38,2.35-4.28,2.35
		c-3.11,0-5.74-2.49-5.74-5.85C84.28,249.64,87,247.04,90.05,247.04z"/>
	<path fill="#FFFFFF" d="M97.47,247.85c0-0.28,0.25-0.53,0.53-0.53h0.53c0.22,0,0.42,0.14,0.48,0.39l0.22,0.81
		c0,0,1.04-1.48,3.36-1.48c0.84,0,2.24,0.14,1.96,0.92l-0.34,0.95c-0.14,0.36-0.39,0.36-0.67,0.25c-0.25-0.11-0.67-0.22-1.09-0.22
		c-2.13,0-3.05,1.57-3.05,1.57v7.47c0,0.28-0.25,0.53-0.53,0.53H98c-0.28,0-0.53-0.25-0.53-0.53V247.85z"/>
	<path fill="#FFFFFF" d="M111.41,247.04c2.94,0,5.07,2.18,5.07,5.12c0,0.2-0.03,0.56-0.06,0.76c-0.03,0.28-0.25,0.48-0.5,0.48h-8.06
		c0.11,1.88,1.76,3.64,3.75,3.64c1.18,0,2.13-0.45,2.77-0.84c0.39-0.22,0.56-0.36,0.78-0.06c0.17,0.22,0.31,0.42,0.48,0.64
		c0.2,0.25,0.31,0.42-0.11,0.73c-0.67,0.53-2.18,1.29-4.12,1.29c-3.39,0-5.49-2.66-5.49-5.88
		C105.93,249.75,108.03,247.04,111.41,247.04z M114.55,251.83c-0.08-1.62-1.43-3.08-3.14-3.08c-1.88,0-3.33,1.34-3.53,3.08H114.55z"
		/>
	<path fill="#FFFFFF" d="M123.2,251.41c1.2,0,2.38,0.36,2.38,0.36c0.03-2.07-0.22-3.02-1.82-3.02c-1.54,0-2.86,0.42-3.36,0.62
		c-0.28,0.11-0.45-0.03-0.53-0.28l-0.22-0.7c-0.11-0.34,0.06-0.5,0.31-0.62c0.17-0.08,1.79-0.73,3.89-0.73
		c2.86,0,3.56,1.46,3.56,4.73v6.21c0,0.28-0.25,0.53-0.53,0.53h-0.53c-0.31,0-0.39-0.17-0.48-0.42l-0.22-0.76
		c-0.59,0.59-1.74,1.46-3.47,1.46c-1.96,0-3.44-1.43-3.44-3.67C118.72,253,120.32,251.41,123.2,251.41z M122.47,257.12
		c1.4,0,2.6-0.87,3.08-1.57v-2.21c-0.34-0.2-1.12-0.45-2.35-0.45c-1.57,0-2.69,0.79-2.69,2.24
		C120.51,256.25,121.27,257.12,122.47,257.12z"/>
	<path fill="#FFFFFF" d="M130.62,256.95c0.11-0.17,0.31-0.56,0.39-0.7c0.14-0.22,0.45-0.28,0.76-0.08c0,0,1.2,0.98,2.63,0.98
		c1.15,0,1.82-0.59,1.82-1.34c0-0.98-0.84-1.43-2.46-2.24c-1.48-0.73-3.19-1.71-3.19-3.61c0-1.18,0.95-2.91,3.56-2.91
		c1.46,0,2.58,0.5,3.11,0.87c0.25,0.17,0.34,0.56,0.17,0.87l-0.22,0.45c-0.17,0.31-0.56,0.39-0.81,0.25c0,0-1.2-0.67-2.24-0.67
		c-1.26,0-1.6,0.64-1.6,1.12c0,0.92,0.92,1.34,2.07,1.9c1.93,0.92,3.67,1.79,3.67,3.81c0,1.63-1.57,3.16-3.86,3.16
		c-1.88,0-3.02-0.78-3.64-1.26C130.62,257.43,130.54,257.14,130.62,256.95z"/>
	<path fill="#FFFFFF" d="M140.87,240.82c0-0.76,0.59-1.34,1.32-1.34c0.76,0,1.34,0.59,1.34,1.34c0,0.73-0.59,1.32-1.34,1.32
		C141.46,242.14,140.87,241.55,140.87,240.82z M141.26,247.85c0-0.28,0.25-0.53,0.53-0.53h0.87c0.28,0,0.53,0.25,0.53,0.53v10.13
		c0,0.28-0.25,0.53-0.53,0.53h-0.87c-0.28,0-0.53-0.25-0.53-0.53V247.85z"/>
	<path fill="#FFFFFF" d="M147.17,247.85c0-0.28,0.25-0.53,0.53-0.53h0.53c0.25,0,0.39,0.11,0.45,0.34l0.25,0.87
		c0,0,1.6-1.48,3.92-1.48c3.25,0,4.34,2.13,4.34,5.04v5.91c0,0.28-0.25,0.53-0.53,0.53h-0.9c-0.28,0-0.53-0.25-0.53-0.53v-5.91
		c0-2.13-0.95-3.16-2.52-3.16c-2.1,0-3.61,1.6-3.61,1.6v7.47c0,0.28-0.25,0.53-0.53,0.53h-0.87c-0.28,0-0.53-0.25-0.53-0.53V247.85z
		"/>
	<path fill="#FFFFFF" d="M161.79,254.77c0,0-0.9-1.15-0.9-2.8c0-2.6,1.82-4.93,4.73-4.93h4.73c0.31,0,0.53,0.22,0.53,0.53v0.48
		c0,0.2-0.11,0.45-0.31,0.48l-1.51,0.31c0,0,1.26,0.92,1.26,3.14c0,2.55-1.82,4.76-4.7,4.76c-1.79,0-2.66-0.7-2.66-0.7
		s-1.23,0.56-1.23,1.68c0,0.7,0.5,1.37,1.54,1.37h4.03c2.35,0,4.2,1.15,4.2,3.58c0,2.32-2.41,4.54-5.8,4.54
		c-3.75,0-5.38-2.02-5.38-3.86c0-1.68,1.34-2.44,1.62-2.6v-0.08c-0.73-0.2-2.04-0.92-2.04-2.66
		C159.91,255.86,161.79,254.77,161.79,254.77z M165.68,265.38c1.85,0,3.75-1.04,3.75-2.66c0-0.36-0.17-1.82-2.13-1.82
		c-1.04,0-2.07,0-3.11,0c0,0-1.88,0.5-1.88,2.16C162.32,264.4,163.77,265.38,165.68,265.38z M168.45,251.91
		c0-1.85-1.12-3.14-2.8-3.14c-1.71,0-2.94,1.29-2.94,3.14s1.23,3.14,2.94,3.14C167.33,255.04,168.45,253.76,168.45,251.91z"/>
	<path fill="#FFFFFF" d="M180.82,249h-1.43c-0.31,0-0.53-0.25-0.53-0.53v-0.62c0-0.31,0.22-0.53,0.53-0.53h1.43v-3.11
		c0-0.28,0.25-0.53,0.53-0.53l0.9-0.06c0.28,0,0.5,0.25,0.5,0.53v3.16H186c0.31,0,0.53,0.22,0.53,0.53v0.62
		c0,0.28-0.22,0.53-0.53,0.53h-3.25v6.55c0,1.12,0.28,1.34,0.92,1.34c0.7,0,1.68-0.42,2.04-0.62c0.42-0.22,0.53-0.06,0.67,0.17
		l0.42,0.7c0.2,0.34,0.11,0.5-0.2,0.7c-0.39,0.25-1.9,0.95-3.22,0.95c-2.24,0-2.58-1.34-2.58-3.08V249z"/>
	<path fill="#FFFFFF" d="M194.35,247.04c2.94,0,5.07,2.18,5.07,5.12c0,0.2-0.03,0.56-0.06,0.76c-0.03,0.28-0.25,0.48-0.5,0.48h-8.06
		c0.11,1.88,1.76,3.64,3.75,3.64c1.18,0,2.13-0.45,2.77-0.84c0.39-0.22,0.56-0.36,0.78-0.06c0.17,0.22,0.31,0.42,0.48,0.64
		c0.2,0.25,0.31,0.42-0.11,0.73c-0.67,0.53-2.18,1.29-4.12,1.29c-3.39,0-5.49-2.66-5.49-5.88
		C188.86,249.75,190.96,247.04,194.35,247.04z M197.48,251.83c-0.08-1.62-1.43-3.08-3.14-3.08c-1.88,0-3.33,1.34-3.53,3.08H197.48z"
		/>
	<path fill="#FFFFFF" d="M202.47,247.85c0-0.28,0.25-0.53,0.53-0.53h0.53c0.22,0,0.42,0.14,0.48,0.39l0.22,0.81
		c0,0,1.04-1.48,3.36-1.48c0.84,0,2.24,0.14,1.96,0.92l-0.34,0.95c-0.14,0.36-0.39,0.36-0.67,0.25c-0.25-0.11-0.67-0.22-1.09-0.22
		c-2.13,0-3.05,1.57-3.05,1.57v7.47c0,0.28-0.25,0.53-0.53,0.53H203c-0.28,0-0.53-0.25-0.53-0.53V247.85z"/>
	<path fill="#FFFFFF" d="M211.82,247.85c0-0.28,0.25-0.53,0.53-0.53h0.53c0.25,0,0.39,0.11,0.45,0.34l0.25,0.87
		c0,0,1.32-1.48,3.64-1.48c1.65,0,2.86,0.64,3.58,1.82c0.14-0.11,1.93-1.82,4.17-1.82c3.25,0,4.34,2.13,4.34,5.04v5.91
		c0,0.28-0.25,0.53-0.53,0.53h-0.9c-0.28,0-0.53-0.25-0.53-0.53v-5.91c0-2.1-0.9-3.16-2.52-3.16c-1.82,0-3.02,1.2-3.42,1.57
		c0.08,0.48,0.14,1.01,0.14,1.6v5.91c0,0.28-0.25,0.53-0.53,0.53h-0.9c-0.28,0-0.53-0.25-0.53-0.53v-5.91
		c0-2.13-0.95-3.16-2.66-3.16c-1.99,0-3.19,1.6-3.19,1.6v7.47c0,0.28-0.25,0.53-0.53,0.53h-0.87c-0.28,0-0.53-0.25-0.53-0.53V247.85
		z"/>
</g>
</svg>
